<?xml version="1.0" encoding="UTF-8" standalone="no"?>
<svg
   xmlns:dc="http://purl.org/dc/elements/1.1/"
   xmlns:cc="http://creativecommons.org/ns#"
   xmlns:rdf="http://www.w3.org/1999/02/22-rdf-syntax-ns#"
   xmlns:svg="http://www.w3.org/2000/svg"
   xmlns="http://www.w3.org/2000/svg"
   xmlns:sodipodi="http://sodipodi.sourceforge.net/DTD/sodipodi-0.dtd"
   xmlns:inkscape="http://www.inkscape.org/namespaces/inkscape"
   width="185.46492mm"
   height="180.50607mm"
   viewBox="0 0 185.46492 180.50607"
   version="1.1"
   id="svg8"
   inkscape:version="1.0.1 (3bc2e813f5, 2020-09-07)"
   sodipodi:docname="Eswat CPO stickers.svg"
   inkscape:export-filename="D:\EMU\artwork\arcade\eswat\cpo\Eswat CPO Stickers UDb.png"
   inkscape:export-xdpi="148"
   inkscape:export-ydpi="148">
  <defs
     id="defs2" />
  <sodipodi:namedview
     id="base"
     pagecolor="#ffffff"
     bordercolor="#666666"
     borderopacity="1.0"
     inkscape:pageopacity="0.0"
     inkscape:pageshadow="2"
     inkscape:zoom="0.7"
     inkscape:cx="387.42239"
     inkscape:cy="460.4705"
     inkscape:document-units="mm"
     inkscape:current-layer="g1028"
     inkscape:document-rotation="0"
     showgrid="false"
     inkscape:window-width="1920"
     inkscape:window-height="1137"
     inkscape:window-x="1912"
     inkscape:window-y="-8"
     inkscape:window-maximized="1"
     inkscape:snap-global="false"
     showguides="true"
     inkscape:guide-bbox="true"
     inkscape:snap-bbox="true"
     fit-margin-top="0"
     fit-margin-left="0"
     fit-margin-right="0"
     fit-margin-bottom="0" />
  <metadata
     id="metadata5">
    <rdf:RDF>
      <cc:Work
         rdf:about="">
        <dc:format>image/svg+xml</dc:format>
        <dc:type
           rdf:resource="http://purl.org/dc/dcmitype/StillImage" />
        <dc:title></dc:title>
      </cc:Work>
    </rdf:RDF>
  </metadata>
  <g
     inkscape:label="Layer 1"
     inkscape:groupmode="layer"
     id="layer1"
     transform="translate(-7.046389,11.285456)">
    <g
       id="g1028"
       transform="matrix(2.4295935,0,0,2.4295935,-10.073471,16.133616)">
      <rect
         style="color:#000000;overflow:visible;fill:#0080ff;fill-opacity:1;fill-rule:evenodd;stroke:none;stroke-width:0.228316;stroke-miterlimit:4;stroke-dasharray:none;paint-order:stroke markers fill;stop-color:#000000"
         id="rect889"
         width="76.335785"
         height="74.294762"
         x="7.0463886"
         y="-11.285457"
         rx="0"
         ry="0" />
      <g
         id="g887"
         transform="translate(-40.77359,-43.65625)">
        <rect
           style="color:#000000;overflow:visible;fill:#ffffff;fill-rule:evenodd;stroke:none;stroke-width:0.314516;paint-order:stroke markers fill;stop-color:#000000"
           id="rect873"
           width="17.572969"
           height="9.53613"
           x="66.378738"
           y="40.88847"
           rx="1.5119047"
           ry="1.5119047" />
        <path
           style="fill:#000000;fill-rule:evenodd;stroke:#000000;stroke-width:0.2;stroke-linecap:butt;stroke-linejoin:miter;stroke-miterlimit:4;stroke-dasharray:none;stroke-opacity:1"
           d="m 74.322701,46.589758 -0.314716,0.259873 c -0.08911,0.0073 -0.196997,-0.0055 -0.303971,-0.108081 l -0.01027,-0.350641 c 0.0011,-0.359154 0.124228,-0.648144 0.264093,-0.968643 l 0.333774,-0.586318 c 0.126515,-0.480148 0.06279,-0.806105 -0.0951,-1.250578 -0.07982,-0.19623 -0.09269,-0.318828 -0.112076,-0.448589 -0.0069,-0.04615 -0.01461,-0.0932 -0.02646,-0.144793 L 73.65285,42.853449 c -0.228958,-0.06632 -0.33861,-0.05128 -0.534144,0.05561 -0.24367,0.115138 -0.254644,0.112717 -0.157111,0.349453 l 0.113763,0.276127 0.202893,0.365892 c 0.07478,0.136423 0.146419,0.175559 0.109224,0.324862 -0.04948,0.154342 -0.182383,0.196918 -0.32477,0.191375 -0.08022,-0.0028 -0.125371,-0.04431 -0.170964,-0.160831 l -0.08655,-0.245465 -0.403318,-0.688455 c -0.107087,-0.214916 -0.105083,-0.274 -0.04777,-0.403899 0.03652,-0.071 0.08994,-0.126077 0.166535,-0.195001 l 0.582066,-0.416631 c 0.09648,-0.09436 0.187046,-0.137836 0.286937,-0.160641 0.240598,-0.05566 0.445677,-0.01233 0.698532,0.02224 l 0.596795,-0.127775 c 0.193053,-0.04627 0.239522,-0.085 0.29879,-0.186304 l 0.19089,-0.326302 c 0.03191,-0.06125 0.08562,-0.112288 0.148932,-0.132347 0.152666,-0.04837 0.324925,-0.03072 0.477378,0.05411 0.09914,0.08186 0.108602,0.214274 0.175875,0.435821 0.04257,0.140201 0.0376,0.187138 0.301336,0.156019 0.495238,-0.04362 0.754692,0.220739 1.146436,0.497012 l 0.548472,0.435084 c 0.06826,0.07112 0.04514,0.140207 -0.0082,0.248828 l -0.401993,0.615535 -0.0742,0.319692 c -0.04278,0.268773 -0.167713,0.242089 -0.378659,0.194925 -0.155556,-0.151038 -0.167261,-0.150105 -0.07938,-0.332935 l 0.152644,-0.254952 0.197951,-0.422743 c -0.0063,-0.0801 -0.03319,-0.150578 -0.06784,-0.212855 -0.100065,-0.177097 -0.214588,-0.211999 -0.388028,-0.250132 -0.266153,-0.02518 -0.396682,0.114785 -0.461039,0.27924 l -0.142593,0.375333 c -0.159205,0.282039 -0.130567,0.496715 -0.09634,0.803698 l 0.06588,0.590792 c 0.190667,0.250469 0.244086,0.545319 0.325479,0.842757 0.08677,0.490043 0.08604,0.693342 0.133665,1.140824 0.05139,0.416699 0.189051,0.840899 0.183717,1.423455 0.163174,0.186996 0.217652,0.254754 0.216832,0.487929 -0.0094,0.232645 -0.07265,0.221916 -0.405505,0.202765 l -0.102628,-0.08055 -0.0289,-0.416941 c -0.302157,-0.498381 -0.421329,-1.029581 -0.547841,-1.588267 -0.381749,-0.440576 -0.378279,-0.909364 -0.44401,-1.465967 -0.166854,-0.369239 -0.215451,-0.321975 -0.490248,-0.307655 -0.10332,0.0054 -0.136267,0.03352 -0.170823,0.09781 -0.06219,0.0991 -0.06634,0.202549 -0.08344,0.323544 0.0589,0.06818 0.05173,0.15862 0.06088,0.240956 0.01073,0.0967 -0.0077,0.291776 -0.0077,0.291776 -0.01525,0.242764 -0.02021,0.371087 -0.117796,0.520359 -0.162508,0.08319 -0.225262,0.102036 -0.490359,-0.05087 z"
           id="path861"
           sodipodi:nodetypes="cccccccscccccccccccccccccscacscccccccccccccccccccccccccsccacccc" />
      </g>
      <g
         id="g895"
         transform="translate(-83.673887,-43.65625)">
        <rect
           style="color:#000000;overflow:visible;fill:#ffffff;fill-rule:evenodd;stroke:none;stroke-width:0.314516;paint-order:stroke markers fill;stop-color:#000000"
           id="rect875"
           width="17.572969"
           height="9.53613"
           x="130.92433"
           y="40.88847"
           rx="1.5119047"
           ry="1.5119047" />
        <g
           id="g883"
           transform="translate(0,-0.57659247)">
          <path
             style="fill:#000000;fill-rule:evenodd;stroke:#000000;stroke-width:0.2;stroke-linecap:butt;stroke-linejoin:miter;stroke-miterlimit:4;stroke-dasharray:none;stroke-opacity:1"
             d="m 135.00099,47.619695 -0.31472,0.259873 c -0.0891,0.0073 -0.19699,-0.0055 -0.30397,-0.108081 l -0.0103,-0.350641 c 10e-4,-0.359154 0.12423,-0.648144 0.2641,-0.968643 l 0.33377,-0.586318 c 0.12651,-0.480148 0.0628,-0.806105 -0.0951,-1.250578 -0.0798,-0.19623 -0.0927,-0.318828 -0.11208,-0.448589 -0.007,-0.04615 -0.0146,-0.0932 -0.0265,-0.144793 l -0.40512,-0.138539 c -0.22896,-0.06632 -0.33861,-0.05128 -0.53415,0.05561 -0.24367,0.115138 -0.25464,0.112717 -0.15711,0.349453 l 0.11377,0.276127 0.20289,0.365892 c 0.0748,0.136423 0.14642,0.175559 0.10922,0.324862 -0.0495,0.154342 -0.18238,0.196918 -0.32477,0.191375 -0.0802,-0.0028 -0.12537,-0.04431 -0.17096,-0.160831 l -0.0866,-0.245465 -0.40332,-0.688455 c -0.10709,-0.214916 -0.10508,-0.274 -0.0478,-0.403899 0.0365,-0.071 0.0899,-0.126077 0.16654,-0.195001 l 0.58206,-0.416631 c 0.0965,-0.09436 0.18705,-0.137836 0.28694,-0.160641 0.2406,-0.05566 0.44568,-0.01233 0.69853,0.02224 l 0.5968,-0.127775 c 0.19305,-0.04627 0.23952,-0.085 0.29879,-0.186304 l 0.19089,-0.326302 c 0.0319,-0.06125 0.0856,-0.112288 0.14893,-0.132347 0.15266,-0.04837 0.32492,-0.03072 0.47738,0.05411 0.0991,0.08186 0.1086,0.214274 0.17587,0.435821 0.0426,0.140201 0.0376,0.187138 0.30134,0.156019 0.49524,-0.04362 0.75469,0.220739 1.14643,0.497012 l 0.54848,0.435084 c 0.0683,0.07112 0.0451,0.140207 -0.008,0.248828 l -0.402,0.615535 -0.0742,0.319692 c -0.0428,0.268773 -0.16771,0.242089 -0.37866,0.194925 -0.15555,-0.151038 -0.16726,-0.150105 -0.0794,-0.332935 l 0.15265,-0.254952 0.19795,-0.422743 c -0.006,-0.0801 -0.0332,-0.150578 -0.0678,-0.212855 -0.10007,-0.177097 -0.21459,-0.211999 -0.38803,-0.250132 -0.26615,-0.02518 -0.39668,0.114785 -0.46104,0.27924 l -0.14259,0.375333 c -0.15921,0.282039 -0.13057,0.496715 -0.0963,0.803698 l 0.0659,0.590792 c 0.19067,0.250469 0.24408,0.545319 0.32548,0.842757 0.0868,0.490043 0.086,0.693342 0.13366,1.140824 0.0514,0.416699 0.18905,0.840899 0.18372,1.423455 0.16317,0.186996 0.21765,0.254754 0.21683,0.487929 -0.009,0.232645 -0.0727,0.221916 -0.4055,0.202765 l -0.10263,-0.08055 -0.0289,-0.416941 c -0.30216,-0.498381 -0.42133,-1.029581 -0.54784,-1.588267 -0.38175,-0.440576 -0.37828,-0.909364 -0.44401,-1.465967 -0.16686,-0.369239 -0.21545,-0.321975 -0.49025,-0.307655 -0.10332,0.0054 -0.13627,0.03352 -0.17082,0.09781 -0.0622,0.0991 -0.0663,0.202549 -0.0834,0.323544 0.0589,0.06818 0.0517,0.15862 0.0609,0.240956 0.0107,0.0967 -0.008,0.291776 -0.008,0.291776 -0.0153,0.242764 -0.0202,0.371087 -0.1178,0.520359 -0.16251,0.08319 -0.22526,0.102036 -0.49036,-0.05087 z"
             id="path877"
             sodipodi:nodetypes="cccccccscccccccccccccccccscacscccccccccccccccccccccccccsccacccc" />
          <path
             style="fill:#000000;fill-rule:evenodd;stroke:#000000;stroke-width:0.2;stroke-linecap:butt;stroke-linejoin:miter;stroke-miterlimit:4;stroke-dasharray:none;stroke-opacity:1"
             d="m 141.89906,47.619695 -0.31472,0.259873 c -0.0891,0.0073 -0.19699,-0.0055 -0.30397,-0.108081 l -0.0103,-0.350641 c 0.001,-0.359154 0.12423,-0.648144 0.2641,-0.968643 l 0.33377,-0.586318 c 0.12651,-0.480148 0.0628,-0.806105 -0.0951,-1.250578 -0.0798,-0.19623 -0.0927,-0.318828 -0.11208,-0.448589 -0.007,-0.04615 -0.0146,-0.0932 -0.0265,-0.144793 l -0.40512,-0.138539 c -0.22896,-0.06632 -0.33861,-0.05128 -0.53415,0.05561 -0.24367,0.115138 -0.25464,0.112717 -0.15711,0.349453 l 0.11377,0.276127 0.20289,0.365892 c 0.0748,0.136423 0.14642,0.175559 0.10922,0.324862 -0.0495,0.154342 -0.18238,0.196918 -0.32477,0.191375 -0.0802,-0.0028 -0.12537,-0.04431 -0.17096,-0.160831 l -0.0866,-0.245465 -0.40332,-0.688455 c -0.10709,-0.214916 -0.10508,-0.274 -0.0478,-0.403899 0.0365,-0.071 0.0899,-0.126077 0.16654,-0.195001 l 0.58206,-0.416631 c 0.0965,-0.09436 0.18705,-0.137836 0.28694,-0.160641 0.2406,-0.05566 0.44568,-0.01233 0.69853,0.02224 l 0.5968,-0.127775 c 0.19305,-0.04627 0.23952,-0.085 0.29879,-0.186304 l 0.19089,-0.326302 c 0.0319,-0.06125 0.0856,-0.112288 0.14893,-0.132347 0.15266,-0.04837 0.32492,-0.03072 0.47738,0.05411 0.0991,0.08186 0.1086,0.214274 0.17587,0.435821 0.0426,0.140201 0.0376,0.187138 0.30134,0.156019 0.49524,-0.04362 0.75469,0.220739 1.14643,0.497012 l 0.54848,0.435084 c 0.0683,0.07112 0.0451,0.140207 -0.008,0.248828 l -0.402,0.615535 -0.0742,0.319692 c -0.0428,0.268773 -0.16771,0.242089 -0.37866,0.194925 -0.15555,-0.151038 -0.16726,-0.150105 -0.0794,-0.332935 l 0.15265,-0.254952 0.19795,-0.422743 c -0.006,-0.0801 -0.0332,-0.150578 -0.0678,-0.212855 -0.10007,-0.177097 -0.21459,-0.211999 -0.38803,-0.250132 -0.26615,-0.02518 -0.39668,0.114785 -0.46104,0.27924 l -0.14259,0.375333 c -0.15921,0.282039 -0.13057,0.496715 -0.0963,0.803698 l 0.0659,0.590792 c 0.19067,0.250469 0.24408,0.545319 0.32548,0.842757 0.0868,0.490043 0.086,0.693342 0.13366,1.140824 0.0514,0.416699 0.18905,0.840899 0.18372,1.423455 0.16317,0.186996 0.21765,0.254754 0.21683,0.487929 -0.009,0.232645 -0.0727,0.221916 -0.4055,0.202765 l -0.10263,-0.08055 -0.0289,-0.416941 c -0.30216,-0.498381 -0.42133,-1.029581 -0.54784,-1.588267 -0.38175,-0.440576 -0.37828,-0.909364 -0.44401,-1.465967 -0.16686,-0.369239 -0.21545,-0.321975 -0.49025,-0.307655 -0.10332,0.0054 -0.13627,0.03352 -0.17082,0.09781 -0.0622,0.0991 -0.0663,0.202549 -0.0834,0.323544 0.0589,0.06818 0.0517,0.15862 0.0609,0.240956 0.0107,0.0967 -0.008,0.291776 -0.008,0.291776 -0.0153,0.242764 -0.0202,0.371087 -0.1178,0.520359 -0.16251,0.08319 -0.22526,0.102036 -0.49036,-0.05087 z"
             id="path879"
             sodipodi:nodetypes="cccccccscccccccccccccccccscacscccccccccccccccccccccccccsccacccc" />
        </g>
      </g>
      <g
         id="g915"
         transform="translate(-25.748882,-26.098677)">
        <rect
           style="color:#000000;overflow:visible;fill:#ff2a2a;fill-rule:evenodd;stroke:none;stroke-width:0.350466;paint-order:stroke markers fill;stop-color:#000000"
           id="rect897"
           width="21.908556"
           height="9.4974995"
           x="60.008888"
           y="55.24902"
           rx="1.8560797"
           ry="1.8560797" />
        <text
           xml:space="preserve"
           style="font-style:normal;font-variant:normal;font-weight:normal;font-stretch:normal;font-size:3.66201px;line-height:3.64708px;font-family:'Franklin Gothic Heavy';-inkscape-font-specification:'Franklin Gothic Heavy, ';letter-spacing:0px;word-spacing:0px;fill:#ffffff;stroke:none;stroke-width:0.0851455px;stroke-linecap:butt;stroke-linejoin:miter;stroke-opacity:1"
           x="65.329956"
           y="64.592125"
           id="text907"
           transform="scale(1.0866286,0.92027763)"><tspan
             sodipodi:role="line"
             id="tspan905"
             x="65.329956"
             y="64.592125"
             style="font-style:normal;font-variant:normal;font-weight:normal;font-stretch:normal;font-size:3.66201px;font-family:'Franklin Gothic Heavy';-inkscape-font-specification:'Franklin Gothic Heavy, ';text-align:center;text-anchor:middle;fill:#ffffff;stroke:none;stroke-width:0.0851455px">SPECIAL</tspan><tspan
             sodipodi:role="line"
             x="65.329956"
             y="68.239204"
             style="font-style:normal;font-variant:normal;font-weight:normal;font-stretch:normal;font-size:3.66201px;font-family:'Franklin Gothic Heavy';-inkscape-font-specification:'Franklin Gothic Heavy, ';text-align:center;text-anchor:middle;fill:#ffffff;stroke:none;stroke-width:0.0851455px"
             id="tspan909">WEAPONS</tspan></text>
      </g>
      <g
         id="g925"
         transform="translate(-44.457752,-8.0026308)">
        <g
           id="g973">
          <rect
             style="color:#000000;overflow:visible;fill:#ff2a2a;fill-rule:evenodd;stroke:none;stroke-width:0.350466;paint-order:stroke markers fill;stop-color:#000000"
             id="rect917"
             width="21.908556"
             height="9.4974995"
             x="60.008888"
             y="55.24902"
             rx="1.8560797"
             ry="1.8560797" />
          <text
             xml:space="preserve"
             style="font-style:normal;font-variant:normal;font-weight:normal;font-stretch:normal;font-size:3.66201px;line-height:3.64708px;font-family:'Franklin Gothic Heavy';-inkscape-font-specification:'Franklin Gothic Heavy, ';letter-spacing:0px;word-spacing:0px;fill:#ffffff;stroke:none;stroke-width:0.0851455px;stroke-linecap:butt;stroke-linejoin:miter;stroke-opacity:1"
             x="65.325485"
             y="66.415665"
             id="text923"
             transform="scale(1.0866286,0.92027763)"><tspan
               sodipodi:role="line"
               x="65.325485"
               y="66.415665"
               style="font-style:normal;font-variant:normal;font-weight:normal;font-stretch:normal;font-size:3.66201px;font-family:'Franklin Gothic Heavy';-inkscape-font-specification:'Franklin Gothic Heavy, ';text-align:center;text-anchor:middle;fill:#ffffff;stroke:none;stroke-width:0.0851455px"
               id="tspan921">SHOOT</tspan></text>
        </g>
      </g>
      <g
         id="g963"
         transform="translate(-7.0400184,-8.0026303)">
        <g
           id="g968">
          <rect
             style="color:#000000;overflow:visible;fill:#ff2a2a;fill-rule:evenodd;stroke:none;stroke-width:0.350466;paint-order:stroke markers fill;stop-color:#000000"
             id="rect957"
             width="21.908556"
             height="9.4974995"
             x="60.008888"
             y="55.24902"
             rx="1.8560797"
             ry="1.8560797" />
          <text
             xml:space="preserve"
             style="font-style:normal;font-variant:normal;font-weight:normal;font-stretch:normal;font-size:3.66201px;line-height:3.64708px;font-family:'Franklin Gothic Heavy';-inkscape-font-specification:'Franklin Gothic Heavy, ';letter-spacing:0px;word-spacing:0px;fill:#ffffff;stroke:none;stroke-width:0.0851455px;stroke-linecap:butt;stroke-linejoin:miter;stroke-opacity:1"
             x="65.326378"
             y="66.396889"
             id="text961"
             transform="scale(1.0866286,0.92027763)"><tspan
               sodipodi:role="line"
               x="65.326378"
               y="66.396889"
               style="font-style:normal;font-variant:normal;font-weight:normal;font-stretch:normal;font-size:3.66201px;font-family:'Franklin Gothic Heavy';-inkscape-font-specification:'Franklin Gothic Heavy, ';text-align:center;text-anchor:middle;fill:#ffffff;stroke:none;stroke-width:0.0851455px"
               id="tspan959">JUMP</tspan></text>
        </g>
      </g>
    </g>
  </g>
</svg>
