<?xml version="1.0" encoding="UTF-8" standalone="no"?>
<svg
   xmlns:dc="http://purl.org/dc/elements/1.1/"
   xmlns:cc="http://creativecommons.org/ns#"
   xmlns:rdf="http://www.w3.org/1999/02/22-rdf-syntax-ns#"
   xmlns:svg="http://www.w3.org/2000/svg"
   xmlns="http://www.w3.org/2000/svg"
   xmlns:sodipodi="http://sodipodi.sourceforge.net/DTD/sodipodi-0.dtd"
   xmlns:inkscape="http://www.inkscape.org/namespaces/inkscape"
   inkscape:version="1.0 (4035a4f, 2020-05-01)"
   sodipodi:docname="rock-ola logo.svg"
   id="svg42"
   version="1.1"
   viewBox="0 0 1155 196"
   height="196pt"
   width="1155pt">
  <metadata
     id="metadata48">
    <rdf:RDF>
      <cc:Work
         rdf:about="">
        <dc:format>image/svg+xml</dc:format>
        <dc:type
           rdf:resource="http://purl.org/dc/dcmitype/StillImage" />
      </cc:Work>
    </rdf:RDF>
  </metadata>
  <defs
     id="defs46" />
  <sodipodi:namedview
     inkscape:guide-bbox="true"
     showguides="true"
     inkscape:current-layer="svg42"
     inkscape:window-maximized="0"
     inkscape:window-y="24"
     inkscape:window-x="0"
     inkscape:cy="132.39489"
     inkscape:cx="1068.0777"
     inkscape:zoom="0.4462907"
     inkscape:snap-global="true"
     showgrid="false"
     id="namedview44"
     inkscape:window-height="744"
     inkscape:window-width="1366"
     inkscape:pageshadow="2"
     inkscape:pageopacity="0"
     guidetolerance="10"
     gridtolerance="10"
     objecttolerance="10"
     borderopacity="1"
     bordercolor="#666666"
     pagecolor="#ffffff" />
  <rect
     y="-29.858473"
     x="-29.858473"
     height="349.77072"
     width="1209.2682"
     id="rect938"
     style="fill:#0000ff;fill-opacity:1;stroke:none;stroke-width:4.29535;stroke-miterlimit:4;stroke-dasharray:none;stop-color:#000000" />
  <g
     style="fill:#ffffff"
     id="g916">
    <path
       id="path936"
       d="M 1116.8008 130.67383 C 1102.5865 130.67382 1091.0234 142.23692 1091.0234 156.45117 C 1091.0234 170.66543 1102.5865 182.22852 1116.8008 182.22852 C 1131.015 182.22852 1142.5781 170.66543 1142.5781 156.45117 C 1142.5781 142.23692 1131.015 130.67382 1116.8008 130.67383 z M 1116.8008 134.42383 C 1128.9884 134.42382 1138.8281 144.26357 1138.8281 156.45117 C 1138.8281 168.63878 1128.9884 178.47852 1116.8008 178.47852 C 1104.6132 178.47852 1094.7734 168.63878 1094.7734 156.45117 C 1094.7734 144.26357 1104.6132 134.42382 1116.8008 134.42383 z "
       style="color:#000000;font-style:normal;font-variant:normal;font-weight:normal;font-stretch:normal;font-size:medium;line-height:normal;font-family:sans-serif;font-variant-ligatures:normal;font-variant-position:normal;font-variant-caps:normal;font-variant-numeric:normal;font-variant-alternates:normal;font-variant-east-asian:normal;font-feature-settings:normal;font-variation-settings:normal;text-indent:0;text-align:start;text-decoration:none;text-decoration-line:none;text-decoration-style:solid;text-decoration-color:#000000;letter-spacing:normal;word-spacing:normal;text-transform:none;writing-mode:lr-tb;direction:ltr;text-orientation:mixed;dominant-baseline:auto;baseline-shift:baseline;text-anchor:start;white-space:normal;shape-padding:0;shape-margin:0;inline-size:0;clip-rule:nonzero;display:inline;overflow:visible;visibility:visible;isolation:auto;mix-blend-mode:normal;color-interpolation:sRGB;color-interpolation-filters:linearRGB;solid-color:#000000;solid-opacity:1;vector-effect:none;fill:#ffffff;fill-opacity:1;fill-rule:nonzero;stroke:none;stroke-width:3.75;stroke-linecap:butt;stroke-linejoin:miter;stroke-miterlimit:4;stroke-dasharray:none;stroke-dashoffset:0;stroke-opacity:1;color-rendering:auto;image-rendering:auto;shape-rendering:auto;text-rendering:auto;enable-background:accumulate;stop-color:#000000;stop-opacity:1;opacity:1" />
    <g
       style="font-style:normal;font-variant:normal;font-weight:bold;font-stretch:normal;font-size:42.11930000000000263px;line-height:1.25;font-family:'Gill Sans MT';-inkscape-font-specification:'Gill Sans MT Bold';fill:#ffffff;fill-opacity:1;stroke:none;stroke-width:1.05298"
       id="text911"
       aria-label="R">
      <path
         id="path931"
         style="font-style:normal;font-variant:normal;font-weight:bold;font-stretch:normal;font-family:'Gill Sans MT';-inkscape-font-specification:'Gill Sans MT Bold';fill:#ffffff;stroke-width:1.05298"
         d="m 1105.4817,141.72447 h 12.8333 q 4.1749,0 6.7868,2.42679 2.6119,2.40623 2.6119,5.84077 0,4.75076 -4.9359,7.03359 2.18,0.96661 4.1132,5.28548 1.9538,4.31887 3.7636,8.14416 h -7.8768 q -0.6992,-1.41906 -2.4474,-5.40887 -1.7275,-3.98982 -2.982,-5.12095 -1.234,-1.13114 -2.6531,-1.13114 h -2.0566 v 11.66096 h -7.157 z m 7.157,5.26491 v 6.54001 h 3.7842 q 1.8098,0 2.8587,-0.84321 1.0694,-0.86377 1.0694,-2.44736 0,-3.24944 -4.0926,-3.24944 z" />
    </g>
  </g>
  <path
     transform="scale(0.74999999)"
     d="M 532.07031 21.476562 A 111.34506 111.34506 0 0 0 420.82617 132.82227 A 111.34506 111.34506 0 0 0 532.16992 244.16797 A 111.34506 111.34506 0 0 0 640.45312 158.75977 L 581.7168 158.75977 A 55.924796 55.924796 0 0 1 532.16992 188.74609 A 55.924796 55.924796 0 0 1 476.24609 132.82227 A 55.924796 55.924796 0 0 1 532.16992 76.896484 A 55.924796 55.924796 0 0 1 581.77734 107 L 640.48047 107 A 111.34506 111.34506 0 0 0 532.16992 21.476562 A 111.34506 111.34506 0 0 0 532.07031 21.476562 z "
     style="fill:#ffffff;stroke:none;stroke-width:0.152979;stop-color:#000000"
     id="path59" />
  <path
     transform="scale(0.74999999)"
     d="M 302.68945 21.476562 A 111.34506 111.34506 0 0 0 191.44531 132.82227 A 111.34506 111.34506 0 0 0 302.78906 244.16797 A 111.34506 111.34506 0 0 0 414.13477 132.82227 A 111.34506 111.34506 0 0 0 302.78906 21.476562 A 111.34506 111.34506 0 0 0 302.68945 21.476562 z M 302.78906 76.896484 A 55.924796 55.924796 0 0 1 358.71484 132.82227 A 55.924796 55.924796 0 0 1 302.78906 188.74609 A 55.924796 55.924796 0 0 1 246.86523 132.82227 A 55.924796 55.924796 0 0 1 302.78906 76.896484 z "
     style="fill:#ffffff;stroke:none;stroke-width:0.152979;stop-color:#000000"
     id="path52" />
  <path
     style="stroke:none;fill:#ffffff;fill-opacity:1"
     sodipodi:nodetypes="ccccccccccccccccaacc"
     id="path12"
     d="m 20.33,16.08 h 71.66 c 12.43,0.62 24.76,5.47 33.78,14.14 14.66,14.63 19.73,37.41 14.68,57.24 -5.17,15.95 -18.07,28.77 -33.58,34.85 -2.40335,1.08426 -2.98451,1.64362 -2.52675,2.3228 L 139.97143,177.49486 94.39,177.29 62.55,129.77 v 47.52 H 20.33 M 63.53,52.43 c -0.664678,0 -0.98,0.01 -0.98,8.17 v 29.42 c 0,5.041009 0.572661,5.54 2.17,5.54 H 81.08 C 91.408738,95.096673 94.713975,90.097649 97.706871,84.059916 101.19536,77.022398 100.86749,67.14001 96.64,60.52 93.493713,55.593094 87.17,52.29 81.08,52.43 Z"
     opacity="1"
     stroke-width="0.09375"
     stroke="#949ba1"
     fill="#949ba1" />
  <path
     style="fill:#ffffff;stroke:none"
     sodipodi:nodetypes="cccccccccccc"
     id="path18"
     d="m 483.63,17.945 h 43.56 V 83.57 L 573.79297,17.945 H 617.18 L 563.06161,100.00919 618.15,179.37 h -45.17 l -45.79,-62.54 v 62.54 h -43.56 z"
     opacity="1"
     stroke-width="0.09375"
     stroke="#949ba1"
     fill="#949ba1" />
  <path
     style="fill:#ffffff;stroke:none"
     sodipodi:nodetypes="cccccccccccccccc"
     id="path22"
     d="m 987.67,18.255 h 30.9 l 65.47,161.725 h -45.41 l -8.76,-23.12192 -53.59713,-0.15976 L 967.73,179.98 H 873.6 V 18.255 h 42.575 V 141.48 l 20.355,-0.17 m 52.01464,-19.365 H 1018.52 l -15.0158,-43.333886 z"
     opacity="1"
     stroke-width="0.09375"
     stroke="#949ba1"
     fill="#949ba1" />
  <path
     style="fill:#ffffff;stroke:none"
     sodipodi:nodetypes="ccccc"
     id="path30"
     d="m 627.08,81.524063 h 53.66 v 36.299997 h -53.66 z"
     opacity="1"
     stroke-width="0.09375"
     stroke="#949ba1"
     fill="#949ba1" />
  <path
     id="path52-5"
     style="fill:#ffffff;stroke:none;stroke-width:0.114734;stop-color:#000000"
     d="m 784.32679,16.164794 a 83.508793,83.508793 0 0 0 -83.43309,83.509276 83.508793,83.508793 0 0 0 83.50779,83.50927 83.508793,83.508793 0 0 0 83.5093,-83.50927 83.508793,83.508793 0 0 0 -83.5093,-83.509276 83.508793,83.508793 0 0 0 -0.075,0 z m 0.075,41.56494 a 41.943596,41.943596 0 0 1 41.9444,41.944336 41.943596,41.943596 0 0 1 -41.9444,41.94286 41.943596,41.943596 0 0 1 -41.94285,-41.94286 41.943596,41.943596 0 0 1 41.94285,-41.944336 z" />
  <text
     id="text942"
     y="240.87659"
     x="677.66162"
     style="font-style:normal;font-variant:normal;font-weight:bold;font-stretch:normal;font-size:42.8904px;line-height:1.25;font-family:Helvetica;-inkscape-font-specification:'Helvetica Bold';fill:#ffffff;fill-opacity:1;stroke:none;stroke-width:1.07226"
     xml:space="preserve"><tspan
       style="font-style:normal;font-variant:normal;font-weight:bold;font-stretch:normal;font-family:Helvetica;-inkscape-font-specification:'Helvetica Bold';fill:#ffffff;stroke-width:1.07226"
       y="240.87659"
       x="677.66162"
       id="tspan940"
       sodipodi:role="line">Rock-Ola Mfg. Corp.</tspan></text>
</svg>
